<?xml version="1.0" standalone="no"?>
<!DOCTYPE svg PUBLIC "-//W3C//DTD SVG 20010904//EN"
 "http://www.w3.org/TR/2001/REC-SVG-20010904/DTD/svg10.dtd">
<svg version="1.0" xmlns="http://www.w3.org/2000/svg"
 width="2080.000000pt" height="2080.000000pt" viewBox="0 0 2080.000000 2080.000000"
 preserveAspectRatio="xMidYMid meet">
<metadata>
Created by potrace 1.14, written by Peter Selinger 2001-2017
</metadata>
<g transform="translate(0.000000,2080.000000) scale(0.100000,-0.100000)"
fill="#000000" stroke="none">
<path d="M3354 12455 c-2 -5 -3 -795 -2 -1755 l3 -1745 235 0 235 0 3 838 2
837 695 0 695 0 -2 203 -3 202 -692 3 -693 2 0 505 0 505 754 0 c415 0 761 3
770 6 14 5 16 33 16 205 l0 199 -1006 2 c-664 2 -1008 0 -1010 -7z"/>
<path d="M9430 11935 c0 -118 -2 -215 -4 -215 -2 0 -21 16 -42 36 -55 51 -159
118 -229 146 -128 52 -196 63 -395 63 -162 0 -195 -3 -270 -23 -208 -57 -374
-168 -511 -342 l-64 -82 -3 196 -2 196 -220 0 -220 0 0 -320 0 -320 -90 0 -89
0 -4 -837 c-3 -825 -3 -839 -25 -920 -74 -281 -249 -468 -499 -534 -92 -25
-306 -30 -388 -10 -248 61 -379 258 -405 611 -5 69 -10 477 -10 908 l0 782
-220 0 -220 0 0 -819 c0 -487 4 -872 11 -948 10 -132 44 -296 80 -393 98 -264
289 -439 559 -512 75 -20 108 -23 275 -23 170 0 199 3 275 24 114 33 180 63
276 126 83 56 212 182 261 256 l28 43 5 -195 5 -194 215 0 215 0 3 317 2 317
88 3 87 3 6 810 c4 489 10 834 16 870 57 324 242 538 528 611 98 25 308 25
390 0 172 -52 276 -153 336 -331 52 -151 52 -151 58 -1085 l6 -875 93 -3 92
-3 0 -319 0 -320 1090 0 1090 0 0 205 0 205 -850 0 -850 0 -2 1553 -3 1552
-237 3 -238 2 0 -215z"/>
<path d="M16722 11795 c-171 -30 -320 -96 -435 -190 -66 -55 -150 -148 -183
-204 -10 -17 -21 -31 -24 -31 -3 0 -5 84 -5 187 l0 188 -222 3 -223 2 -1 -732
c-1 -451 -5 -700 -10 -648 -42 432 -238 730 -576 870 -144 60 -264 81 -493 87
-267 7 -439 -16 -705 -94 -169 -50 -156 -49 -185 -6 -42 63 -181 196 -257 247
-92 60 -207 110 -331 144 -90 24 -113 26 -317 26 -236 1 -297 -7 -462 -60
-341 -111 -615 -387 -741 -744 -119 -340 -122 -797 -9 -1125 111 -319 348
-577 652 -708 203 -88 427 -124 720 -114 214 7 363 29 560 83 17 4 30 -8 69
-66 92 -135 227 -234 393 -290 115 -38 197 -50 355 -50 396 0 664 123 860 397
l33 45 5 -188 5 -189 215 0 215 0 3 242 2 243 223 2 222 3 5 815 5 815 27 100
c74 271 222 446 440 521 192 65 411 54 611 -31 16 -7 17 6 15 216 l-3 223 -30
9 c-55 16 -333 17 -423 2z m-3855 -526 c317 -44 530 -269 582 -616 6 -39 11
-88 11 -107 l0 -36 -760 0 -760 0 0 39 c0 55 43 215 79 295 124 274 376 425
723 435 26 0 82 -4 125 -10z m1709 -320 c374 -37 588 -235 611 -565 l6 -84
-380 0 c-483 0 -639 -16 -841 -84 l-70 -24 -5 217 c-3 169 -9 239 -26 320 -12
58 -23 109 -24 114 -5 23 275 91 438 106 132 12 170 12 291 0z m-806 -826
c-36 -21 -102 -74 -146 -119 -68 -66 -90 -97 -128 -175 -56 -116 -84 -230 -93
-377 l-6 -112 -36 -10 c-383 -101 -738 -88 -986 34 -247 123 -389 339 -440
676 -8 52 -15 101 -15 108 0 9 198 12 957 12 l958 0 -65 -37z m1417 -310 c-13
-280 -88 -484 -239 -649 -59 -64 -176 -144 -251 -172 -203 -77 -473 -66 -624
24 -155 93 -223 220 -223 416 0 159 39 267 127 350 75 69 148 101 302 133 131
27 228 32 580 34 l334 1 -6 -137z"/>
<path d="M17995 11316 c-231 -45 -424 -163 -571 -350 l-59 -75 -5 187 -5 187
-223 3 -222 2 2 -1317 3 -1318 209 -3 c142 -2 213 1 222 9 11 9 14 162 16 852
l3 842 23 80 c78 269 254 447 507 511 98 25 308 25 390 0 210 -63 321 -204
377 -478 7 -35 13 -358 17 -933 l6 -880 215 0 215 0 0 900 c0 683 -3 918 -13
975 -76 452 -266 691 -627 792 -92 26 -376 34 -480 14z"/>
</g>
</svg>
